<?xml version="1.0" encoding="utf-8"?>
<!-- Generator: Adobe Illustrator 19.0.0, SVG Export Plug-In . SVG Version: 6.00 Build 0)  -->
<svg version="1.1" id="Capa_1" xmlns="http://www.w3.org/2000/svg" xmlns:xlink="http://www.w3.org/1999/xlink" x="0px" y="0px"
	 viewBox="-60 141 489.7 512" style="enable-background:new -60 141 489.7 512;" xml:space="preserve">
<style type="text/css">
	.st0{fill:#508BC7;}
	.st1{fill:#508BC7;enable-background:new    ;}
</style>
<g>
	<path class="st0" d="M184.9,141c14.3,0,24.6,10.2,24.6,24.6v96.3c0,14.3-10.2,25.6-24.6,25.6s-25.6-11.3-25.6-25.6v-96.3
		C159.3,151.2,170.5,141,184.9,141z"/>
	<path class="st1" d="M69.1,195.3l56.3,77.8c12.3,16.4,0,39.9-20.5,39.9c-8.2,0-14.3-3.1-19.5-10.2L29.2,225
		c-8.2-11.3-6.1-26.6,5.1-34.8S61,184,69.1,195.3z"/>
	<path class="st1" d="M-42.5,349.9c-13.3-4.1-20.5-18.4-16.4-31.7c4.1-13.3,18.4-20.5,31.7-16.4L64,331.5
		c13.3,4.1,20.5,18.4,16.4,31.7c-3.1,10.2-14.3,17.4-24.6,17.4c-3.1,0-4.1-1-7.2-2L-42.5,349.9z"/>
	<path class="st1" d="M80.4,430.8c4.1,13.3-3.1,27.6-16.4,31.7l-91.1,29.7c-3.1,1-5.1,1-8.2,1c-10.2,0-20.5-7.2-23.6-17.4
		c-4.1-13.3,3.1-27.6,16.4-31.7l91.1-29.7C62,410.3,76.3,417.5,80.4,430.8z"/>
	<path class="st1" d="M120.3,486.1c11.3,8.2,13.3,23.6,5.1,34.8l-56.3,77.8C64,605.9,56.9,609,48.7,609c-20.5,0-31.7-23.6-19.5-39.9
		l56.3-77.8C93.7,479.9,109.1,477.9,120.3,486.1z"/>
	<path class="st1" d="M184.9,506.6c14.3,0,24.6,11.3,24.6,25.6v95.2c0,14.3-10.2,25.6-24.6,25.6s-25.6-11.3-25.6-25.6v-95.2
		C159.3,517.8,170.5,506.6,184.9,506.6z"/>
	<path class="st1" d="M284.2,491.2l56.3,77.8c12.3,16.4,0,39.9-20.5,39.9c-8.2,0-14.3-3.1-19.5-10.2l-56.3-77.8
		c-8.2-11.3-6.1-26.6,5.1-34.8C260.6,477.9,276,479.9,284.2,491.2z"/>
	<path class="st1" d="M412.2,444.1c13.3,4.1,20.5,18.4,16.4,31.7c-3.1,10.2-14.3,17.4-24.6,17.4c-3.1,0-4.1,0-7.2-1l-91.1-29.7
		c-13.3-4.1-20.5-18.4-16.4-31.7c4.1-13.3,18.4-20.5,31.7-16.4L412.2,444.1z"/>
	<path class="st1" d="M289.3,363.2c-4.1-13.3,3.1-27.6,16.4-31.7l91.1-29.7c13.3-4.1,27.6,3.1,31.7,16.4s-3.1,27.6-16.4,31.7
		L321,378.6c-3.1,1-5.1,2-8.2,2C302.6,380.6,292.4,373.4,289.3,363.2z"/>
	<path class="st1" d="M263.7,313c-20.5,0-31.7-23.6-19.5-39.9l56.3-77.8c8.2-11.3,23.6-13.3,34.8-5.1c11.3,8.2,13.3,23.6,5.1,34.8
		l-56.3,77.8C279.1,310,271.9,313,263.7,313z"/>
</g>
</svg>
