<?xml version="1.0" encoding="utf-8"?>
<!-- Generator: Adobe Illustrator 19.0.0, SVG Export Plug-In . SVG Version: 6.00 Build 0)  -->
<svg version="1.1" id="Capa_1" xmlns="http://www.w3.org/2000/svg" xmlns:xlink="http://www.w3.org/1999/xlink" x="0px" y="0px"
	 viewBox="-49 141 512 512" style="enable-background:new -49 141 512 512;" xml:space="preserve">
<style type="text/css">
	.st0{fill:#508BC7;}
</style>
<g>
	<g>
		<path class="st0" d="M90.3,280.6c56.5-56.5,143-64.6,208.3-24.6c-22.2,21.9-47.7,47.5-47.7,47.5c-17.9,21.4,2.2,33.8,12.4,33.5
			l119.3,0c6.3,0,11.4,0,11.4,0s5.2,0,11.5,0h23.1c6.3,0,11.4-5.2,11.5-11.5V161.3c0.7-15-15.8-29.6-32.8-12.8
			c0,0-28.2,27.4-47.6,46.7c-99.4-72.6-239.6-64.4-329.5,25.4c-52.4,52.4-76.9,122-73.9,190.7h84.9
			C38.3,364.3,54.4,316.4,90.3,280.6z"/>
		<path class="st0" d="M372.7,382.7c3,46.9-13.1,94.8-49,130.7C267.2,570,180.8,578,115.5,538.1c22.1-21.9,47.6-47.5,47.6-47.5
			c17.9-21.4-2.2-33.8-12.4-33.4l-119.4,0c-6.3,0-11.4,0-11.4,0s-5.2,0-11.5,0h-23.2c-6.3,0-11.4,5.2-11.5,11.5v164.1
			c-0.7,15,15.8,29.6,32.8,12.8c0,0,28.1-27.4,47.6-46.7c99.5,72.7,239.7,64.4,329.5-25.4c52.4-52.4,76.9-122,74-190.7L372.7,382.7
			L372.7,382.7z"/>
	</g>
</g>
</svg>
