<?xml version="1.0" encoding="utf-8"?>
<!-- Generator: Adobe Illustrator 19.0.0, SVG Export Plug-In . SVG Version: 6.00 Build 0)  -->
<svg version="1.1" id="Capa_1" xmlns="http://www.w3.org/2000/svg" xmlns:xlink="http://www.w3.org/1999/xlink" x="0px" y="0px"
	 viewBox="-49 141 489.7 512" style="enable-background:new -49 141 489.7 512;" xml:space="preserve">
<style type="text/css">
	.st0{fill:#508BC7;}
	.st1{opacity:0.9;fill:#508BC7;}
	.st2{opacity:0.8;fill:#508BC7;}
	.st3{opacity:0.7;fill:#508BC7;}
	.st4{opacity:0.6;fill:#508BC7;}
	.st5{opacity:0.5;fill:#508BC7;}
	.st6{opacity:0.4;fill:#508BC7;}
	.st7{opacity:0.3;fill:#508BC7;}
	.st8{opacity:0.2;fill:#508BC7;}
	.st9{opacity:0.1;fill:#508BC7;}
</style>
<g>
	<path class="st0" d="M195.9,141c14.3,0,24.6,10.2,24.6,24.6v96.3c0,14.3-10.2,25.6-24.6,25.6s-25.6-11.3-25.6-25.6v-96.3
		C170.3,151.2,181.5,141,195.9,141z"/>
	<path class="st1" d="M80.1,195.3l56.3,77.8c12.3,16.4,0,39.9-20.5,39.9c-8.2,0-14.3-3.1-19.5-10.2L40.2,225
		c-8.2-11.3-6.1-26.6,5.1-34.8S72,184,80.1,195.3z"/>
	<path class="st2" d="M-31.5,349.9c-13.3-4.1-20.5-18.4-16.4-31.7c4.1-13.3,18.4-20.5,31.7-16.4L75,331.5
		c13.3,4.1,20.5,18.4,16.4,31.7c-3.1,10.2-14.3,17.4-24.6,17.4c-3.1,0-4.1-1-7.2-2L-31.5,349.9z"/>
	<path class="st3" d="M91.4,430.8c4.1,13.3-3.1,27.6-16.4,31.7l-91.1,29.7c-3.1,1-5.1,1-8.2,1c-10.2,0-20.5-7.2-23.6-17.4
		c-4.1-13.3,3.1-27.6,16.4-31.7l91.1-29.7C73,410.3,87.3,417.5,91.4,430.8z"/>
	<path class="st4" d="M131.3,486.1c11.3,8.2,13.3,23.6,5.1,34.8l-56.3,77.8C75,605.9,67.9,609,59.7,609c-20.5,0-31.7-23.6-19.5-39.9
		l56.3-77.8C104.7,479.9,120.1,477.9,131.3,486.1z"/>
	<path class="st5" d="M195.9,506.6c14.3,0,24.6,11.3,24.6,25.6v95.2c0,14.3-10.2,25.6-24.6,25.6s-25.6-11.3-25.6-25.6v-95.2
		C170.3,517.8,181.5,506.6,195.9,506.6z"/>
	<path class="st6" d="M295.2,491.2l56.3,77.8c12.3,16.4,0,39.9-20.5,39.9c-8.2,0-14.3-3.1-19.5-10.2l-56.3-77.8
		c-8.2-11.3-6.1-26.6,5.1-34.8C271.6,477.9,287,479.9,295.2,491.2z"/>
	<path class="st7" d="M423.2,444.1c13.3,4.1,20.5,18.4,16.4,31.7c-3.1,10.2-14.3,17.4-24.6,17.4c-3.1,0-4.1,0-7.2-1l-91.1-29.7
		c-13.3-4.1-20.5-18.4-16.4-31.7c4.1-13.3,18.4-20.5,31.7-16.4L423.2,444.1z"/>
	<path class="st8" d="M300.3,363.2c-4.1-13.3,3.1-27.6,16.4-31.7l91.1-29.7c13.3-4.1,27.6,3.1,31.7,16.4
		c4.1,13.3-3.1,27.6-16.4,31.7l-91.1,28.7c-3.1,1-5.1,2-8.2,2C313.6,380.6,303.4,373.4,300.3,363.2z"/>
	<path class="st9" d="M274.7,313c-20.5,0-31.7-23.6-19.5-39.9l56.3-77.8c8.2-11.3,23.6-13.3,34.8-5.1c11.3,8.2,13.3,23.6,5.1,34.8
		l-56.3,77.8C290.1,310,282.9,313,274.7,313z"/>
</g>
</svg>
